<mxfile host="app.diagrams.net" modified="2023-10-26T21:12:25.297Z" agent="Mozilla/5.0 (Windows NT 10.0; Win64; x64) AppleWebKit/537.36 (KHTML, like Gecko) Chrome/118.0.0.0 Safari/537.36" etag="50Cih0XbLJGJ0jTutXO9" version="22.0.8" type="device">
  <diagram name="Page-1" id="2ca16b54-16f6-2749-3443-fa8db7711227">
    <mxGraphModel dx="1434" dy="800" grid="1" gridSize="10" guides="1" tooltips="1" connect="1" arrows="1" fold="1" page="1" pageScale="1" pageWidth="1100" pageHeight="850" background="none" math="0" shadow="0">
      <root>
        <mxCell id="0" />
        <mxCell id="1" parent="0" />
        <mxCell id="Q-xcpIiwas0Bzrut8FKx-7" value="" style="edgeStyle=orthogonalEdgeStyle;rounded=0;orthogonalLoop=1;jettySize=auto;html=1;exitX=0.013;exitY=0.161;exitDx=0;exitDy=0;exitPerimeter=0;entryX=1.044;entryY=0.104;entryDx=0;entryDy=0;entryPerimeter=0;" edge="1" parent="1" source="2ed32ef02a7f4228-1" target="2ed32ef02a7f4228-5">
          <mxGeometry relative="1" as="geometry" />
        </mxCell>
        <mxCell id="2ed32ef02a7f4228-1" value="&lt;div style=&quot;box-sizing:border-box;width:100%;background:#e4e4e4;padding:2px;&quot;&gt;address_client&lt;/div&gt;&lt;table style=&quot;width:100%;font-size:1em;&quot; cellpadding=&quot;2&quot; cellspacing=&quot;0&quot;&gt;&lt;tbody&gt;&lt;tr&gt;&lt;td&gt;&lt;table style=&quot;border-color: var(--border-color); width: 48pt;&quot; width=&quot;64&quot; cellspacing=&quot;0&quot; cellpadding=&quot;0&quot; border=&quot;0&quot;&gt;&lt;tbody style=&quot;border-color: var(--border-color);&quot;&gt;&lt;tr style=&quot;border-color: var(--border-color); height: 15pt;&quot; height=&quot;20&quot;&gt;&lt;td style=&quot;border-color: var(--border-color); height: 15pt; width: 48pt;&quot; width=&quot;64&quot; height=&quot;20&quot;&gt;id_client_rf&lt;/td&gt;&lt;/tr&gt;&lt;tr style=&quot;border-color: var(--border-color); height: 15pt;&quot; height=&quot;20&quot;&gt;&lt;td style=&quot;border-color: var(--border-color); height: 15pt;&quot; height=&quot;20&quot;&gt;address&lt;/td&gt;&lt;/tr&gt;&lt;tr style=&quot;border-color: var(--border-color); height: 15pt;&quot; height=&quot;20&quot;&gt;&lt;td style=&quot;border-color: var(--border-color); height: 15pt;&quot; height=&quot;20&quot;&gt;flag_provider&lt;/td&gt;&lt;/tr&gt;&lt;tr style=&quot;border-color: var(--border-color); height: 15pt;&quot; height=&quot;20&quot;&gt;&lt;td style=&quot;border-color: var(--border-color); height: 15pt;&quot; height=&quot;20&quot;&gt;nflag_have_free_ports&lt;/td&gt;&lt;/tr&gt;&lt;tr style=&quot;border-color: var(--border-color); height: 15pt;&quot; height=&quot;20&quot;&gt;&lt;td style=&quot;border-color: var(--border-color); height: 15pt;&quot; height=&quot;20&quot;&gt;tech_name&lt;/td&gt;&lt;/tr&gt;&lt;tr style=&quot;border-color: var(--border-color); height: 15pt;&quot; height=&quot;20&quot;&gt;&lt;td style=&quot;border-color: var(--border-color); height: 15pt;&quot; height=&quot;20&quot;&gt;latitude&lt;/td&gt;&lt;/tr&gt;&lt;tr style=&quot;border-color: var(--border-color); height: 15pt;&quot; height=&quot;20&quot;&gt;&lt;td style=&quot;border-color: var(--border-color); height: 15pt;&quot; height=&quot;20&quot;&gt;longitude&lt;/td&gt;&lt;/tr&gt;&lt;/tbody&gt;&lt;/table&gt;&lt;br&gt;&lt;/td&gt;&lt;td&gt;&lt;br&gt;&lt;/td&gt;&lt;/tr&gt;&lt;/tbody&gt;&lt;/table&gt;" style="verticalAlign=top;align=left;overflow=fill;html=1;rounded=0;shadow=0;comic=0;labelBackgroundColor=none;strokeWidth=1;fontFamily=Verdana;fontSize=12" parent="1" vertex="1">
          <mxGeometry x="280" y="80" width="160" height="180" as="geometry" />
        </mxCell>
        <mxCell id="Q-xcpIiwas0Bzrut8FKx-6" value="" style="edgeStyle=orthogonalEdgeStyle;rounded=0;orthogonalLoop=1;jettySize=auto;html=1;exitX=-0.011;exitY=0.207;exitDx=0;exitDy=0;exitPerimeter=0;entryX=1.019;entryY=0.172;entryDx=0;entryDy=0;entryPerimeter=0;" edge="1" parent="1" source="2ed32ef02a7f4228-2" target="2ed32ef02a7f4228-1">
          <mxGeometry relative="1" as="geometry">
            <mxPoint x="443" y="110" as="targetPoint" />
          </mxGeometry>
        </mxCell>
        <mxCell id="2ed32ef02a7f4228-2" value="&lt;div style=&quot;box-sizing: border-box ; width: 100% ; background: #e4e4e4 ; padding: 2px&quot;&gt;okved_industry_client&lt;/div&gt;&lt;table style=&quot;width: 100% ; font-size: 1em&quot; cellpadding=&quot;2&quot; cellspacing=&quot;0&quot;&gt;&lt;tbody&gt;&lt;tr&gt;&lt;td&gt;&lt;table style=&quot;border-color: var(--border-color); width: 48pt;&quot; width=&quot;64&quot; cellspacing=&quot;0&quot; cellpadding=&quot;0&quot; border=&quot;0&quot;&gt;&lt;tbody style=&quot;border-color: var(--border-color);&quot;&gt;&lt;tr style=&quot;border-color: var(--border-color); height: 15pt;&quot; height=&quot;20&quot;&gt;&lt;td style=&quot;border-color: var(--border-color); height: 15pt; width: 48pt; outline: none; min-width: 2em; border-image: initial;&quot; width=&quot;64&quot; height=&quot;20&quot;&gt;id_client_rf&lt;/td&gt;&lt;/tr&gt;&lt;tr style=&quot;border-color: var(--border-color); height: 15pt; outline: none; box-sizing: border-box;&quot; height=&quot;20&quot;&gt;&lt;td style=&quot;border-color: var(--border-color); height: 15pt; outline: none; box-sizing: border-box; border-image: initial;&quot; height=&quot;20&quot;&gt;Code_okved&lt;/td&gt;&lt;/tr&gt;&lt;tr style=&quot;border-color: var(--border-color); height: 15pt; outline: none; box-sizing: border-box;&quot; height=&quot;20&quot;&gt;&lt;td style=&quot;border-color: var(--border-color); height: 15pt; outline: none; box-sizing: border-box; border-image: initial;&quot; height=&quot;20&quot;&gt;Name_okved&lt;/td&gt;&lt;/tr&gt;&lt;tr style=&quot;border-color: var(--border-color); height: 15pt; outline: none; box-sizing: border-box;&quot; height=&quot;20&quot;&gt;&lt;td style=&quot;border-color: var(--border-color); height: 15pt; outline: none; box-sizing: border-box; border-image: initial;&quot; height=&quot;20&quot;&gt;Type_okved&lt;/td&gt;&lt;/tr&gt;&lt;tr style=&quot;border-color: var(--border-color); height: 15pt; outline: none; box-sizing: border-box;&quot; height=&quot;20&quot;&gt;&lt;td style=&quot;border-color: var(--border-color); height: 15pt; outline: none; box-sizing: border-box; border-image: initial;&quot; height=&quot;20&quot;&gt;Industry&lt;/td&gt;&lt;/tr&gt;&lt;/tbody&gt;&lt;/table&gt;&lt;/td&gt;&lt;td&gt;&lt;br&gt;&lt;/td&gt;&lt;/tr&gt;&lt;tr&gt;&lt;td&gt;&lt;br&gt;&lt;br&gt;&lt;/td&gt;&lt;td&gt;&lt;br&gt;&lt;/td&gt;&lt;/tr&gt;&lt;/tbody&gt;&lt;/table&gt;" style="verticalAlign=top;align=left;overflow=fill;html=1;rounded=0;shadow=0;comic=0;labelBackgroundColor=none;strokeWidth=1;fontFamily=Verdana;fontSize=12" parent="1" vertex="1">
          <mxGeometry x="520" y="80" width="180" height="150" as="geometry" />
        </mxCell>
        <mxCell id="2ed32ef02a7f4228-5" value="&lt;div style=&quot;box-sizing:border-box;width:100%;background:#e4e4e4;padding:2px;&quot;&gt;base_info_client&lt;/div&gt;&lt;table style=&quot;width:100%;font-size:1em;&quot; cellpadding=&quot;2&quot; cellspacing=&quot;0&quot;&gt;&lt;tbody&gt;&lt;tr&gt;&lt;td&gt;&lt;table style=&quot;border-color: var(--border-color); width: 48pt;&quot; width=&quot;64&quot; cellspacing=&quot;0&quot; cellpadding=&quot;0&quot; border=&quot;0&quot;&gt;&lt;tbody style=&quot;border-color: var(--border-color);&quot;&gt;&lt;tr style=&quot;border-color: var(--border-color); height: 15pt;&quot; height=&quot;20&quot;&gt;&lt;td style=&quot;border-color: var(--border-color); height: 15pt; width: 48pt; outline: none; min-width: 2em; border-image: initial;&quot; width=&quot;64&quot; height=&quot;20&quot;&gt;id_client_rf&lt;/td&gt;&lt;/tr&gt;&lt;tr style=&quot;border-color: var(--border-color); height: 15pt; outline: none; box-sizing: border-box;&quot; height=&quot;20&quot;&gt;&lt;td style=&quot;border-color: var(--border-color); height: 15pt; outline: none; box-sizing: border-box; border-image: initial;&quot; height=&quot;20&quot;&gt;name_rf&lt;/td&gt;&lt;/tr&gt;&lt;tr style=&quot;border-color: var(--border-color); height: 15pt; outline: none; box-sizing: border-box;&quot; height=&quot;20&quot;&gt;&lt;td style=&quot;border-color: var(--border-color); height: 15pt; outline: none; box-sizing: border-box; border-image: initial;&quot; height=&quot;20&quot;&gt;id_client&lt;/td&gt;&lt;/tr&gt;&lt;tr style=&quot;border-color: var(--border-color); height: 15pt; outline: none; box-sizing: border-box;&quot; height=&quot;20&quot;&gt;&lt;td style=&quot;border-color: var(--border-color); height: 15pt; outline: none; box-sizing: border-box; border-image: initial;&quot; height=&quot;20&quot;&gt;workersrange&lt;/td&gt;&lt;/tr&gt;&lt;tr style=&quot;border-color: var(--border-color); height: 15pt; outline: none; box-sizing: border-box;&quot; height=&quot;20&quot;&gt;&lt;td style=&quot;border-color: var(--border-color); height: 15pt; outline: none; box-sizing: border-box; border-image: initial;&quot; height=&quot;20&quot;&gt;total_revenue&lt;/td&gt;&lt;/tr&gt;&lt;tr style=&quot;border-color: var(--border-color); height: 15pt; outline: none; box-sizing: border-box;&quot; height=&quot;20&quot;&gt;&lt;td style=&quot;border-color: var(--border-color); height: 15pt; outline: none; box-sizing: border-box; border-image: initial;&quot; height=&quot;20&quot;&gt;companywithsameinfo&lt;/td&gt;&lt;/tr&gt;&lt;tr style=&quot;border-color: var(--border-color); height: 15pt; outline: none; box-sizing: border-box;&quot; height=&quot;20&quot;&gt;&lt;td style=&quot;border-color: var(--border-color); height: 15pt; outline: none; box-sizing: border-box; border-image: initial;&quot; height=&quot;20&quot;&gt;arbitrationcases&lt;/td&gt;&lt;/tr&gt;&lt;tr style=&quot;border-color: var(--border-color); height: 15pt; outline: none; box-sizing: border-box;&quot; height=&quot;20&quot;&gt;&lt;td style=&quot;border-color: var(--border-color); height: 15pt; outline: none; box-sizing: border-box; border-image: initial;&quot; height=&quot;20&quot;&gt;datefirstreg&lt;/td&gt;&lt;/tr&gt;&lt;tr style=&quot;border-color: var(--border-color); height: 15pt; outline: none; box-sizing: border-box;&quot; height=&quot;20&quot;&gt;&lt;td style=&quot;border-color: var(--border-color); height: 15pt; outline: none; box-sizing: border-box; border-image: initial;&quot; height=&quot;20&quot;&gt;flag_site&lt;/td&gt;&lt;/tr&gt;&lt;tr style=&quot;border-color: var(--border-color); height: 15pt; outline: none; box-sizing: border-box;&quot; height=&quot;20&quot;&gt;&lt;td style=&quot;border-color: var(--border-color); height: 15pt; outline: none; box-sizing: border-box; border-image: initial;&quot; height=&quot;20&quot;&gt;flag_business_center&lt;/td&gt;&lt;/tr&gt;&lt;tr style=&quot;border-color: var(--border-color); height: 15pt; outline: none; box-sizing: border-box;&quot; height=&quot;20&quot;&gt;&lt;td style=&quot;border-color: var(--border-color); height: 15pt; outline: none; box-sizing: border-box; border-image: initial;&quot; height=&quot;20&quot;&gt;flag_resident&lt;/td&gt;&lt;/tr&gt;&lt;tr style=&quot;border-color: var(--border-color); height: 15pt; outline: none; box-sizing: border-box;&quot; height=&quot;20&quot;&gt;&lt;td style=&quot;border-color: var(--border-color); height: 15pt; outline: none; box-sizing: border-box; border-image: initial;&quot; height=&quot;20&quot;&gt;date_actual_data&lt;/td&gt;&lt;/tr&gt;&lt;tr style=&quot;border-color: var(--border-color); height: 15pt; outline: none; box-sizing: border-box;&quot; height=&quot;20&quot;&gt;&lt;td style=&quot;border-color: var(--border-color); height: 15pt; outline: none; box-sizing: border-box; border-image: initial;&quot; height=&quot;20&quot;&gt;flag_vk&lt;/td&gt;&lt;/tr&gt;&lt;/tbody&gt;&lt;/table&gt;&lt;/td&gt;&lt;td&gt;&lt;br&gt;&lt;/td&gt;&lt;/tr&gt;&lt;/tbody&gt;&lt;/table&gt;" style="verticalAlign=top;align=left;overflow=fill;html=1;rounded=0;shadow=0;comic=0;labelBackgroundColor=none;strokeWidth=1;fontFamily=Verdana;fontSize=12" parent="1" vertex="1">
          <mxGeometry x="70" y="80" width="160" height="280" as="geometry" />
        </mxCell>
        <mxCell id="Q-xcpIiwas0Bzrut8FKx-5" value="" style="edgeStyle=orthogonalEdgeStyle;rounded=0;orthogonalLoop=1;jettySize=auto;html=1;exitX=0;exitY=0.645;exitDx=0;exitDy=0;exitPerimeter=0;entryX=1.006;entryY=0.207;entryDx=0;entryDy=0;entryPerimeter=0;" edge="1" parent="1" source="2ed32ef02a7f4228-8" target="2ed32ef02a7f4228-2">
          <mxGeometry relative="1" as="geometry" />
        </mxCell>
        <mxCell id="2ed32ef02a7f4228-8" value="&lt;div style=&quot;box-sizing: border-box ; width: 100% ; background: #e4e4e4 ; padding: 2px&quot;&gt;sales&lt;/div&gt;&lt;table style=&quot;width: 100% ; font-size: 1em&quot; cellpadding=&quot;2&quot; cellspacing=&quot;0&quot;&gt;&lt;tbody&gt;&lt;tr&gt;&lt;td&gt;&lt;table style=&quot;border-color: var(--border-color); width: 48pt;&quot; width=&quot;64&quot; cellspacing=&quot;0&quot; cellpadding=&quot;0&quot; border=&quot;0&quot;&gt;&lt;tbody style=&quot;border-color: var(--border-color);&quot;&gt;&lt;tr style=&quot;border-color: var(--border-color); height: 15pt;&quot; height=&quot;20&quot;&gt;&lt;td style=&quot;border-color: var(--border-color); height: 15pt; width: 48pt; outline: none; min-width: 2em; border-image: initial;&quot; width=&quot;64&quot; height=&quot;20&quot;&gt;month_sale&lt;/td&gt;&lt;/tr&gt;&lt;tr style=&quot;border-color: var(--border-color); height: 15pt; outline: none; box-sizing: border-box;&quot; height=&quot;20&quot;&gt;&lt;td style=&quot;border-color: var(--border-color); height: 15pt; outline: none; box-sizing: border-box; border-image: initial;&quot; height=&quot;20&quot;&gt;day_sale&lt;/td&gt;&lt;/tr&gt;&lt;tr style=&quot;border-color: var(--border-color); height: 15pt; outline: none; box-sizing: border-box;&quot; height=&quot;20&quot;&gt;&lt;td style=&quot;border-color: var(--border-color); height: 15pt; outline: none; box-sizing: border-box; border-image: initial;&quot; height=&quot;20&quot;&gt;id_client_rf&lt;/td&gt;&lt;/tr&gt;&lt;tr style=&quot;border-color: var(--border-color); height: 15pt; outline: none; box-sizing: border-box;&quot; height=&quot;20&quot;&gt;&lt;td style=&quot;border-color: var(--border-color); height: 15pt; outline: none; box-sizing: border-box; border-image: initial;&quot; height=&quot;20&quot;&gt;sale_size&lt;/td&gt;&lt;/tr&gt;&lt;/tbody&gt;&lt;/table&gt;&lt;/td&gt;&lt;td&gt;&lt;br&gt;&lt;/td&gt;&lt;/tr&gt;&lt;tr&gt;&lt;td&gt;&lt;br&gt;&lt;br&gt;&lt;/td&gt;&lt;td&gt;&lt;br&gt;&lt;/td&gt;&lt;/tr&gt;&lt;/tbody&gt;&lt;/table&gt;" style="verticalAlign=top;align=left;overflow=fill;html=1;rounded=0;shadow=0;comic=0;labelBackgroundColor=none;strokeWidth=1;fontFamily=Verdana;fontSize=12" parent="1" vertex="1">
          <mxGeometry x="760" y="80" width="180" height="110" as="geometry" />
        </mxCell>
        <mxCell id="Q-xcpIiwas0Bzrut8FKx-8" value="" style="edgeStyle=orthogonalEdgeStyle;rounded=0;orthogonalLoop=1;jettySize=auto;html=1;exitX=0;exitY=0.75;exitDx=0;exitDy=0;" edge="1" parent="1" source="2ed32ef02a7f4228-12">
          <mxGeometry relative="1" as="geometry">
            <mxPoint x="730" y="150" as="targetPoint" />
          </mxGeometry>
        </mxCell>
        <mxCell id="2ed32ef02a7f4228-12" value="&lt;div style=&quot;box-sizing: border-box ; width: 100% ; background: #e4e4e4 ; padding: 2px&quot;&gt;final_list&lt;/div&gt;&lt;table style=&quot;width: 100% ; font-size: 1em&quot; cellpadding=&quot;2&quot; cellspacing=&quot;0&quot;&gt;&lt;tbody&gt;&lt;tr&gt;&lt;td&gt;id_client_rf&lt;/td&gt;&lt;td&gt;&lt;br&gt;&lt;/td&gt;&lt;/tr&gt;&lt;/tbody&gt;&lt;/table&gt;" style="verticalAlign=top;align=left;overflow=fill;html=1;rounded=0;shadow=0;comic=0;labelBackgroundColor=none;strokeWidth=1;fontFamily=Verdana;fontSize=12" parent="1" vertex="1">
          <mxGeometry x="760" y="240" width="160" height="40" as="geometry" />
        </mxCell>
      </root>
    </mxGraphModel>
  </diagram>
</mxfile>
